<mxfile host="65bd71144e">
    <diagram id="PRuRh4UU4XNNTYvPjOoL" name="Page-1">
        <mxGraphModel dx="2016" dy="610" grid="1" gridSize="10" guides="1" tooltips="1" connect="1" arrows="1" fold="1" page="1" pageScale="1" pageWidth="850" pageHeight="1100" math="0" shadow="0">
            <root>
                <mxCell id="0"/>
                <mxCell id="1" parent="0"/>
                <mxCell id="2" value="" style="strokeWidth=2;html=1;shape=mxgraph.lean_mapping.buffer_or_safety_stock;direction=south;" parent="1" vertex="1">
                    <mxGeometry x="40" y="490" width="300" height="30" as="geometry"/>
                </mxCell>
                <mxCell id="3" value="" style="strokeWidth=2;html=1;shape=mxgraph.lean_mapping.buffer_or_safety_stock;direction=south;" parent="1" vertex="1">
                    <mxGeometry x="340" y="490" width="300" height="30" as="geometry"/>
                </mxCell>
                <mxCell id="5" value="PERSON" style="text;html=1;strokeColor=none;fillColor=none;align=center;verticalAlign=middle;whiteSpace=wrap;rounded=0;" parent="1" vertex="1">
                    <mxGeometry x="39" y="459" width="60" height="30" as="geometry"/>
                </mxCell>
                <mxCell id="7" value="&lt;u&gt;ID&lt;/u&gt;" style="text;html=1;strokeColor=none;fillColor=none;align=center;verticalAlign=middle;whiteSpace=wrap;rounded=0;" parent="1" vertex="1">
                    <mxGeometry x="60" y="490" width="60" height="30" as="geometry"/>
                </mxCell>
                <mxCell id="8" value="Fname" style="text;html=1;strokeColor=none;fillColor=none;align=center;verticalAlign=middle;whiteSpace=wrap;rounded=0;" parent="1" vertex="1">
                    <mxGeometry x="160" y="489" width="60" height="30" as="geometry"/>
                </mxCell>
                <mxCell id="9" value="Lname" style="text;html=1;strokeColor=none;fillColor=none;align=center;verticalAlign=middle;whiteSpace=wrap;rounded=0;" parent="1" vertex="1">
                    <mxGeometry x="260" y="490" width="60" height="30" as="geometry"/>
                </mxCell>
                <mxCell id="10" value="email" style="text;html=1;strokeColor=none;fillColor=none;align=center;verticalAlign=middle;whiteSpace=wrap;rounded=0;" parent="1" vertex="1">
                    <mxGeometry x="360" y="489" width="60" height="30" as="geometry"/>
                </mxCell>
                <mxCell id="11" value="password" style="text;html=1;strokeColor=none;fillColor=none;align=center;verticalAlign=middle;whiteSpace=wrap;rounded=0;" parent="1" vertex="1">
                    <mxGeometry x="460" y="489" width="60" height="30" as="geometry"/>
                </mxCell>
                <mxCell id="12" value="address" style="text;html=1;strokeColor=none;fillColor=none;align=center;verticalAlign=middle;whiteSpace=wrap;rounded=0;" parent="1" vertex="1">
                    <mxGeometry x="560" y="489" width="60" height="30" as="geometry"/>
                </mxCell>
                <mxCell id="17" value="PERSON_PHONE" style="text;html=1;align=center;verticalAlign=middle;resizable=0;points=[];autosize=1;strokeColor=none;fillColor=none;" parent="1" vertex="1">
                    <mxGeometry x="17" y="640" width="120" height="30" as="geometry"/>
                </mxCell>
                <mxCell id="22" style="edgeStyle=none;html=1;entryX=0.5;entryY=1;entryDx=0;entryDy=0;exitX=0;exitY=0.5;exitDx=0;exitDy=0;" parent="1" source="19" target="7" edge="1">
                    <mxGeometry relative="1" as="geometry">
                        <mxPoint x="10" y="590" as="targetPoint"/>
                        <Array as="points">
                            <mxPoint x="10" y="635"/>
                            <mxPoint x="10" y="630"/>
                            <mxPoint x="10" y="560"/>
                            <mxPoint x="90" y="560"/>
                        </Array>
                    </mxGeometry>
                </mxCell>
                <mxCell id="19" value="&lt;u&gt;ID&lt;/u&gt;" style="whiteSpace=wrap;html=1;align=center;strokeWidth=2;" parent="1" vertex="1">
                    <mxGeometry x="10" y="670" width="101" height="30" as="geometry"/>
                </mxCell>
                <mxCell id="21" value="&lt;u&gt;Phone&lt;/u&gt;" style="whiteSpace=wrap;html=1;align=center;strokeWidth=2;" parent="1" vertex="1">
                    <mxGeometry x="111" y="670" width="101" height="30" as="geometry"/>
                </mxCell>
                <mxCell id="41" style="edgeStyle=none;html=1;exitX=0;exitY=0.5;exitDx=0;exitDy=0;entryX=1.08;entryY=0.95;entryDx=0;entryDy=0;entryPerimeter=0;" parent="1" source="36" target="2" edge="1">
                    <mxGeometry relative="1" as="geometry">
                        <Array as="points">
                            <mxPoint x="-10" y="825"/>
                            <mxPoint x="-10" y="540"/>
                            <mxPoint x="55" y="540"/>
                        </Array>
                    </mxGeometry>
                </mxCell>
                <mxCell id="36" value="&lt;u&gt;ID&lt;/u&gt;" style="whiteSpace=wrap;html=1;align=center;strokeWidth=2;" parent="1" vertex="1">
                    <mxGeometry x="40" y="810" width="101" height="30" as="geometry"/>
                </mxCell>
                <mxCell id="40" value="SUPPLIER" style="text;html=1;align=center;verticalAlign=middle;resizable=0;points=[];autosize=1;strokeColor=none;fillColor=none;" parent="1" vertex="1">
                    <mxGeometry x="29" y="780" width="80" height="30" as="geometry"/>
                </mxCell>
                <mxCell id="42" value="&lt;u&gt;ProdID&lt;/u&gt;" style="whiteSpace=wrap;html=1;align=center;strokeWidth=2;" parent="1" vertex="1">
                    <mxGeometry x="41.5" y="920" width="101" height="30" as="geometry"/>
                </mxCell>
                <mxCell id="43" value="Price" style="whiteSpace=wrap;html=1;align=center;strokeWidth=2;" parent="1" vertex="1">
                    <mxGeometry x="133.75" y="920" width="101" height="30" as="geometry"/>
                </mxCell>
                <mxCell id="44" value="Quantity" style="whiteSpace=wrap;html=1;align=center;strokeWidth=2;" parent="1" vertex="1">
                    <mxGeometry x="234.75" y="920" width="101" height="30" as="geometry"/>
                </mxCell>
                <mxCell id="45" value="Category" style="whiteSpace=wrap;html=1;align=center;strokeWidth=2;" parent="1" vertex="1">
                    <mxGeometry x="335.75" y="920" width="101" height="30" as="geometry"/>
                </mxCell>
                <mxCell id="46" value="PRODUCT" style="text;html=1;align=center;verticalAlign=middle;resizable=0;points=[];autosize=1;strokeColor=none;fillColor=none;" parent="1" vertex="1">
                    <mxGeometry x="41" y="890" width="80" height="30" as="geometry"/>
                </mxCell>
                <mxCell id="52" value="&lt;u&gt;Order_no&lt;/u&gt;" style="whiteSpace=wrap;html=1;align=center;strokeWidth=2;" parent="1" vertex="1">
                    <mxGeometry x="38.5" y="1180" width="101" height="30" as="geometry"/>
                </mxCell>
                <mxCell id="90" style="edgeStyle=none;html=1;entryX=0.75;entryY=0;entryDx=0;entryDy=0;" parent="1" source="53" target="78" edge="1">
                    <mxGeometry relative="1" as="geometry">
                        <Array as="points">
                            <mxPoint x="190" y="1260"/>
                            <mxPoint x="115" y="1260"/>
                        </Array>
                    </mxGeometry>
                </mxCell>
                <mxCell id="53" value="ClientID" style="whiteSpace=wrap;html=1;align=center;strokeWidth=2;" parent="1" vertex="1">
                    <mxGeometry x="141" y="1180" width="101" height="30" as="geometry"/>
                </mxCell>
                <mxCell id="54" value="Quantity" style="whiteSpace=wrap;html=1;align=center;strokeWidth=2;" parent="1" vertex="1">
                    <mxGeometry x="242" y="1180" width="101" height="30" as="geometry"/>
                </mxCell>
                <mxCell id="55" value="Category" style="whiteSpace=wrap;html=1;align=center;strokeWidth=2;" parent="1" vertex="1">
                    <mxGeometry x="343" y="1180" width="101" height="30" as="geometry"/>
                </mxCell>
                <mxCell id="56" value="ORDER" style="text;html=1;align=center;verticalAlign=middle;resizable=0;points=[];autosize=1;strokeColor=none;fillColor=none;" parent="1" vertex="1">
                    <mxGeometry x="34" y="1150" width="70" height="30" as="geometry"/>
                </mxCell>
                <mxCell id="59" value="OrderDay" style="whiteSpace=wrap;html=1;align=center;strokeWidth=2;" parent="1" vertex="1">
                    <mxGeometry x="442.5" y="1180" width="101" height="30" as="geometry"/>
                </mxCell>
                <mxCell id="60" value="OrderTime" style="whiteSpace=wrap;html=1;align=center;strokeWidth=2;" parent="1" vertex="1">
                    <mxGeometry x="545" y="1180" width="101" height="30" as="geometry"/>
                </mxCell>
                <mxCell id="61" value="ArriverDay" style="whiteSpace=wrap;html=1;align=center;strokeWidth=2;" parent="1" vertex="1">
                    <mxGeometry x="646" y="1180" width="101" height="30" as="geometry"/>
                </mxCell>
                <mxCell id="62" value="ArriverTime" style="whiteSpace=wrap;html=1;align=center;strokeWidth=2;" parent="1" vertex="1">
                    <mxGeometry x="748.5" y="1180" width="101" height="30" as="geometry"/>
                </mxCell>
                <mxCell id="63" value="&lt;u&gt;&lt;b&gt;NOfReport&lt;/b&gt;&lt;/u&gt;" style="whiteSpace=wrap;html=1;align=center;strokeWidth=2;" parent="1" vertex="1">
                    <mxGeometry x="29.5" y="1560" width="101" height="30" as="geometry"/>
                </mxCell>
                <mxCell id="64" value="Time" style="whiteSpace=wrap;html=1;align=center;strokeWidth=2;" parent="1" vertex="1">
                    <mxGeometry x="626" y="1560" width="101" height="30" as="geometry"/>
                </mxCell>
                <mxCell id="65" value="Details" style="whiteSpace=wrap;html=1;align=center;strokeWidth=2;" parent="1" vertex="1">
                    <mxGeometry x="727" y="1560" width="101" height="30" as="geometry"/>
                </mxCell>
                <mxCell id="66" value="Category" style="whiteSpace=wrap;html=1;align=center;strokeWidth=2;" parent="1" vertex="1">
                    <mxGeometry x="323" y="1560" width="101" height="30" as="geometry"/>
                </mxCell>
                <mxCell id="67" value="ORDER_PROD" style="text;html=1;align=center;verticalAlign=middle;resizable=0;points=[];autosize=1;strokeColor=none;fillColor=none;" parent="1" vertex="1">
                    <mxGeometry x="22" y="1380" width="110" height="30" as="geometry"/>
                </mxCell>
                <mxCell id="68" value="Day" style="whiteSpace=wrap;html=1;align=center;strokeWidth=2;" parent="1" vertex="1">
                    <mxGeometry x="525" y="1560" width="101" height="30" as="geometry"/>
                </mxCell>
                <mxCell id="69" value="Order_no" style="whiteSpace=wrap;html=1;align=center;strokeWidth=2;" parent="1" vertex="1">
                    <mxGeometry x="424" y="1560" width="101" height="30" as="geometry"/>
                </mxCell>
                <mxCell id="76" value="NameOfProd" style="whiteSpace=wrap;html=1;align=center;strokeWidth=2;" parent="1" vertex="1">
                    <mxGeometry x="432.25" y="920" width="101" height="30" as="geometry"/>
                </mxCell>
                <mxCell id="87" style="edgeStyle=none;html=1;entryX=1;entryY=1;entryDx=0;entryDy=0;exitX=0.01;exitY=0.333;exitDx=0;exitDy=0;exitPerimeter=0;" parent="1" source="78" target="2" edge="1">
                    <mxGeometry relative="1" as="geometry">
                        <Array as="points">
                            <mxPoint x="-20" y="1300"/>
                            <mxPoint x="-20" y="1140"/>
                            <mxPoint x="-20" y="830"/>
                            <mxPoint x="-20" y="530"/>
                            <mxPoint x="40" y="530"/>
                        </Array>
                    </mxGeometry>
                </mxCell>
                <mxCell id="78" value="&lt;b&gt;&lt;u&gt;ID&lt;/u&gt;&lt;/b&gt;" style="whiteSpace=wrap;html=1;align=center;strokeWidth=2;" parent="1" vertex="1">
                    <mxGeometry x="39" y="1290" width="101" height="30" as="geometry"/>
                </mxCell>
                <mxCell id="82" value="CLIENT" style="text;html=1;align=center;verticalAlign=middle;resizable=0;points=[];autosize=1;strokeColor=none;fillColor=none;" parent="1" vertex="1">
                    <mxGeometry x="41" y="1260" width="70" height="30" as="geometry"/>
                </mxCell>
                <mxCell id="89" value="Price" style="whiteSpace=wrap;html=1;align=center;strokeWidth=2;" parent="1" vertex="1">
                    <mxGeometry x="849.5" y="1180" width="101" height="30" as="geometry"/>
                </mxCell>
                <mxCell id="91" value="Admin" style="whiteSpace=wrap;html=1;align=center;strokeWidth=2;" parent="1" vertex="1">
                    <mxGeometry x="533.25" y="920" width="101" height="30" as="geometry"/>
                </mxCell>
                <mxCell id="95" style="edgeStyle=none;html=1;entryX=0.25;entryY=1;entryDx=0;entryDy=0;" parent="1" source="92" target="36" edge="1">
                    <mxGeometry relative="1" as="geometry">
                        <Array as="points">
                            <mxPoint y="1050"/>
                            <mxPoint y="940"/>
                            <mxPoint y="880"/>
                            <mxPoint x="70" y="880"/>
                        </Array>
                    </mxGeometry>
                </mxCell>
                <mxCell id="92" value="&lt;u&gt;ID&lt;/u&gt;" style="whiteSpace=wrap;html=1;align=center;strokeWidth=2;" parent="1" vertex="1">
                    <mxGeometry x="41.5" y="1040" width="101" height="30" as="geometry"/>
                </mxCell>
                <mxCell id="96" style="edgeStyle=none;html=1;entryX=0.15;entryY=1.125;entryDx=0;entryDy=0;entryPerimeter=0;" parent="1" source="93" target="42" edge="1">
                    <mxGeometry relative="1" as="geometry">
                        <Array as="points">
                            <mxPoint x="200" y="1010"/>
                            <mxPoint x="60" y="1000"/>
                        </Array>
                    </mxGeometry>
                </mxCell>
                <mxCell id="93" value="&lt;u&gt;ProdID&lt;/u&gt;" style="whiteSpace=wrap;html=1;align=center;strokeWidth=2;" parent="1" vertex="1">
                    <mxGeometry x="142.5" y="1040" width="101" height="30" as="geometry"/>
                </mxCell>
                <mxCell id="94" value="PROD_SUP" style="text;html=1;align=center;verticalAlign=middle;resizable=0;points=[];autosize=1;strokeColor=none;fillColor=none;" parent="1" vertex="1">
                    <mxGeometry x="19" y="1010" width="90" height="30" as="geometry"/>
                </mxCell>
                <mxCell id="108" style="edgeStyle=none;html=1;" parent="1" source="106" edge="1">
                    <mxGeometry relative="1" as="geometry">
                        <mxPoint x="40" y="930" as="targetPoint"/>
                        <Array as="points">
                            <mxPoint x="-90" y="1425"/>
                            <mxPoint x="-90" y="930"/>
                        </Array>
                    </mxGeometry>
                </mxCell>
                <mxCell id="106" value="&lt;u&gt;ProdID&lt;/u&gt;" style="whiteSpace=wrap;html=1;align=center;strokeWidth=2;" parent="1" vertex="1">
                    <mxGeometry x="41.75" y="1410" width="101" height="30" as="geometry"/>
                </mxCell>
                <mxCell id="109" style="edgeStyle=none;html=1;entryX=0.5;entryY=1;entryDx=0;entryDy=0;exitX=0.592;exitY=-0.055;exitDx=0;exitDy=0;exitPerimeter=0;" parent="1" source="107" target="52" edge="1">
                    <mxGeometry relative="1" as="geometry">
                        <Array as="points">
                            <mxPoint x="200" y="1360"/>
                            <mxPoint y="1360"/>
                            <mxPoint y="1240"/>
                            <mxPoint x="90" y="1240"/>
                        </Array>
                    </mxGeometry>
                </mxCell>
                <mxCell id="107" value="&lt;u&gt;Order_no&lt;/u&gt;" style="whiteSpace=wrap;html=1;align=center;strokeWidth=2;" parent="1" vertex="1">
                    <mxGeometry x="142.75" y="1410" width="101" height="30" as="geometry"/>
                </mxCell>
                <mxCell id="115" style="edgeStyle=none;html=1;entryX=0.5;entryY=1;entryDx=0;entryDy=0;" parent="1" source="111" target="78" edge="1">
                    <mxGeometry relative="1" as="geometry">
                        <Array as="points">
                            <mxPoint x="180" y="1530"/>
                            <mxPoint x="-210" y="1530"/>
                            <mxPoint x="-210" y="1340"/>
                            <mxPoint x="90" y="1340"/>
                        </Array>
                    </mxGeometry>
                </mxCell>
                <mxCell id="111" value="ClientID" style="whiteSpace=wrap;html=1;align=center;strokeWidth=2;" parent="1" vertex="1">
                    <mxGeometry x="121" y="1560" width="101" height="30" as="geometry"/>
                </mxCell>
                <mxCell id="113" style="edgeStyle=none;html=1;entryX=0;entryY=1;entryDx=0;entryDy=0;exitX=0.574;exitY=0;exitDx=0;exitDy=0;exitPerimeter=0;" parent="1" source="112" target="36" edge="1">
                    <mxGeometry relative="1" as="geometry">
                        <mxPoint x="280" y="1550" as="sourcePoint"/>
                        <Array as="points">
                            <mxPoint x="280" y="1520"/>
                            <mxPoint x="-120" y="1520"/>
                            <mxPoint x="-120" y="1240"/>
                            <mxPoint x="-120" y="840"/>
                        </Array>
                    </mxGeometry>
                </mxCell>
                <mxCell id="112" value="SuplierID" style="whiteSpace=wrap;html=1;align=center;strokeWidth=2;" parent="1" vertex="1">
                    <mxGeometry x="222" y="1560" width="101" height="30" as="geometry"/>
                </mxCell>
                <mxCell id="114" value="COMPLAINTS" style="text;html=1;align=center;verticalAlign=middle;resizable=0;points=[];autosize=1;strokeColor=none;fillColor=none;" parent="1" vertex="1">
                    <mxGeometry x="27" y="1530" width="100" height="30" as="geometry"/>
                </mxCell>
            </root>
        </mxGraphModel>
    </diagram>
</mxfile>